<?xml version="1.0" encoding="utf-8"?>
<!-- Generator: Adobe Illustrator 23.0.2, SVG Export Plug-In . SVG Version: 6.00 Build 0)  -->
<svg version="1.1" id="Layer_1" xmlns="http://www.w3.org/2000/svg" xmlns:xlink="http://www.w3.org/1999/xlink" x="0px" y="0px"
	 viewBox="0 0 100 100" style="enable-background:new 0 0 100 100;" xml:space="preserve">
<style type="text/css">
	.st0{fill:#ED3726;}
	.st1{fill:#FFD201;}
</style>
<g>
	<g>
		<path class="st0" d="M2.9,38.3c6.4-26,32.8-41.9,58.8-35.5c26,6.4,41.9,32.8,35.5,58.8c-6.4,26-32.8,41.9-58.8,35.5
			C12.3,90.7-3.6,64.4,2.9,38.3"/>
		<path class="st0" d="M4.3,33.7h91.4C90.4,18.9,78.1,6.9,61.7,2.9C37.2-3.2,12.5,10.5,4.3,33.7"/>
		<path class="st1" d="M97.5,60c0-0.1,0-0.2,0.1-0.3c0-0.2,0.1-0.4,0.1-0.5c0-0.1,0-0.2,0.1-0.3c0-0.2,0.1-0.4,0.1-0.6
			c0-0.1,0-0.2,0-0.3c0-0.2,0.1-0.5,0.1-0.7c0,0,0-0.1,0-0.1c0-0.3,0.1-0.6,0.1-0.8c0-0.1,0-0.1,0-0.2c0-0.2,0.1-0.4,0.1-0.6
			c0-0.1,0-0.2,0-0.3c0-0.2,0-0.4,0.1-0.6c0-0.1,0-0.2,0-0.3c0-0.2,0-0.4,0-0.6c0-0.1,0-0.2,0-0.3c0-0.2,0-0.4,0-0.6
			c0-0.1,0-0.1,0-0.2c0-0.3,0-0.6,0-0.8c0,0,0-0.1,0-0.1c0-0.2,0-0.5,0-0.7c0-0.1,0-0.2,0-0.3c0-0.2,0-0.4,0-0.6c0-0.1,0-0.2,0-0.3
			c0-0.2,0-0.4,0-0.6c0-0.1,0-0.2,0-0.3c0-0.2,0-0.4,0-0.6c0-0.1,0-0.1,0-0.2c0-0.6-0.1-1.1-0.1-1.7c0-0.1,0-0.1,0-0.2
			c0-0.2,0-0.4,0-0.6c0-0.1,0-0.2,0-0.3c0-0.2,0-0.4-0.1-0.6c0-0.1,0-0.2,0-0.3c0-0.2,0-0.4-0.1-0.6c0-0.1,0-0.1,0-0.2
			c-0.1-0.6-0.2-1.1-0.2-1.6c0,0,0-0.1,0-0.1c0-0.2-0.1-0.4-0.1-0.7c0-0.1,0-0.2,0-0.2c0-0.2-0.1-0.4-0.1-0.6c0-0.1,0-0.2,0-0.2
			c0-0.2-0.1-0.4-0.1-0.6c0-0.1,0-0.1,0-0.2c-0.1-0.2-0.1-0.5-0.2-0.7l0-0.1c-0.1-0.3-0.1-0.5-0.2-0.8h0c-0.4-1.4-0.8-2.8-1.3-4.2
			H4.3c-0.5,1.5-1,3.1-1.4,4.6c-1.6,6.5-1.8,13-0.8,19.3c0,0,0,0.1,0,0.1c0,0.2,0.1,0.5,0.1,0.7c0,0,0,0.1,0,0.1
			c0,0.2,0.1,0.4,0.1,0.6c0,0.1,0,0.1,0,0.2c0,0.2,0.1,0.4,0.1,0.6c0,0.1,0,0.2,0,0.2c0,0.2,0.1,0.4,0.1,0.6c0,0.1,0,0.2,0.1,0.3
			c0,0.2,0.1,0.4,0.1,0.5c0,0.1,0.1,0.3,0.1,0.4C3,62.1,3,62.3,3.1,62.5c0.1,0.2,0.1,0.4,0.2,0.6c0,0.1,0,0.2,0.1,0.3
			c0.1,0.2,0.1,0.4,0.2,0.6c0,0.1,0.1,0.2,0.1,0.3c0.1,0.2,0.1,0.4,0.2,0.6c0,0.1,0.1,0.2,0.1,0.3C3.9,65.2,4,65.4,4,65.5
			c0,0.1,0.1,0.2,0.1,0.2c0.1,0.2,0.1,0.4,0.2,0.6c0,0,0,0.1,0,0.1h0c0,0.1,0.1,0.2,0.1,0.3h91.1c0-0.1,0.1-0.2,0.1-0.3h0
			c0.1-0.3,0.2-0.6,0.3-0.9c0,0,0-0.1,0-0.1c0.1-0.4,0.2-0.8,0.4-1.1c0-0.1,0-0.1,0.1-0.2c0.1-0.4,0.2-0.7,0.3-1.1
			c0-0.1,0-0.1,0.1-0.2c0.1-0.4,0.2-0.9,0.3-1.3c0.1-0.3,0.1-0.6,0.2-0.8c0-0.1,0-0.2,0.1-0.3C97.4,60.4,97.5,60.2,97.5,60"/>
	</g>
</g>
</svg>
