<?xml version="1.0" encoding="utf-8"?>
<!-- Generator: Adobe Illustrator 23.0.2, SVG Export Plug-In . SVG Version: 6.00 Build 0)  -->
<svg version="1.1" id="Layer_1" xmlns="http://www.w3.org/2000/svg" xmlns:xlink="http://www.w3.org/1999/xlink" x="0px" y="0px"
	 viewBox="0 0 100 100" style="enable-background:new 0 0 100 100;" xml:space="preserve">
<style type="text/css">
	.st0{clip-path:url(#SVGID_2_);fill:url(#SVGID_3_);}
	.st1{fill:#223C72;}
	.st2{fill:#EFEBE7;}
	.st3{fill:#ED3726;}
	.st4{fill:#2F3E67;}
</style>
<g>
	<g>
		<g>
			<defs>
				<path id="SVGID_1_" d="M50,1.5C28.2,1.5,8.4,16.2,2.9,38.3c-6.4,26,9.4,52.3,35.5,58.8c26,6.4,52.3-9.4,58.8-35.5
					c6.4-26-9.4-52.3-35.5-58.8C57.7,1.9,53.8,1.5,50,1.5C50,1.5,50,1.5,50,1.5"/>
			</defs>
			<clipPath id="SVGID_2_">
				<use xlink:href="#SVGID_1_"  style="overflow:visible;"/>
			</clipPath>
			
				<radialGradient id="SVGID_3_" cx="-1937.832" cy="2038.2537" r="0.2459" gradientTransform="matrix(197.4678 0 0 -197.4678 382709.4063 402539.4688)" gradientUnits="userSpaceOnUse">
				<stop  offset="0" style="stop-color:#FFFFFF"/>
				<stop  offset="0.7809" style="stop-color:#FFFFFF"/>
				<stop  offset="0.8188" style="stop-color:#F9F8F8"/>
				<stop  offset="0.8756" style="stop-color:#E9E6E3"/>
				<stop  offset="0.9441" style="stop-color:#CFC8C2"/>
				<stop  offset="1" style="stop-color:#B5ABA1"/>
			</radialGradient>
			<rect x="-3.6" y="1.5" class="st0" width="107.1" height="102.1"/>
		</g>
		<g>
			<path class="st1" d="M2.9,38.3c6.4-26,32.8-41.9,58.8-35.5c26,6.4,41.9,32.8,35.5,58.8c-6.4,26-32.8,41.9-58.8,35.5
				C12.3,90.7-3.6,64.4,2.9,38.3"/>
		</g>
		<g>
			<path class="st2" d="M84.4,15.8l-19.5,13v-25c-1.1-0.3-2.1-0.7-3.3-0.9c-9.2-2.3-18.4-1.8-26.7,1v24.9l-19.4-13
				c-4.5,4.5-8.1,9.9-10.5,16l5.1,3.4H3.8c-0.3,1-0.6,2-0.9,3.1c-2.3,9.2-1.8,18.5,1,26.9h6.4l-5.1,3.4c2.5,5.9,6.1,11.3,10.7,15.9
				L35,71.8v24.4c1.1,0.4,2.2,0.7,3.4,1c9.1,2.3,18.3,1.8,26.6-0.9V71.8l19.2,12.8c4.5-4.4,8.2-9.8,10.7-15.9l-5.2-3.5h6.5
				c0.4-1.2,0.7-2.4,1-3.6c2.2-9,1.8-18.1-0.9-26.4h-6.5l5.2-3.5C92.6,25.8,89,20.4,84.4,15.8"/>
		</g>
		<g>
			<path class="st3" d="M27.5,35.3l-18-12C8.3,25.1,7.2,27,6.2,29l9.4,6.3H27.5z M90.5,23.2c-1.2-1.8-2.5-3.6-4-5.2L64.9,32.3v3h7.4
				L90.5,23.2z M9.6,76.9c1.2,1.8,2.6,3.6,4,5.2L35,67.9v-2.7h-7.8L9.6,76.9z M97.8,41.5H58.7V2.2c-5.9-1.1-11.8-1-17.5,0v39.2h-39
				c-1.1,5.9-1,11.8,0.1,17.5h38.9v38.8c5.9,1.1,11.8,1.1,17.5,0V59h39C98.8,53,98.8,47.1,97.8,41.5 M72.7,65.2L90.4,77
				c1.2-1.8,2.3-3.7,3.3-5.7l-9.1-6L72.7,65.2z"/>
		</g>
		<g>
			<path class="st4" d="M64.9,8.9L64.9,8.9V12c0.2-0.6,0.3-1.2,0.3-1.7C65.2,9.8,65.1,9.3,64.9,8.9"/>
		</g>
	</g>
</g>
</svg>
